# AST/ASF file generated using VICON BodyLanguage
# -----------------------------------------------
:version 1.10
:name VICON
:units
  mass 1.0
  length 0.45
  angle deg
:documentation
   .ast/.asf automatically generated from VICON data using
   VICON BodyBuilder and BodyLanguage model FoxedUp or BRILLIANT.MOD
:root
   order TX TY TZ RX RY RZ
   axis XYZ
   position 0 0 0  
   orientation 0 0 0 
:bonedata
  begin
     id 1 
     name lhipjoint
     direction 0.606768 -0.715223 0.346827 
     length 2.41543 
     axis 0 0 0  XYZ
  end
  begin
     id 2 
     name lfemur
     direction 0.34202 -0.939693 0  
     length 7.2778  
     axis 0 0 20  XYZ
    dof rx ry rz
    limits (-160.0 20.0)
           (-70.0 70.0)
           (-60.0 70.0)
  end
  begin
     id 3 
     name ltibia
     direction 0.34202 -0.939693 0   
     length 7.61811   
     axis 0 0 20   XYZ
    dof rx
    limits (-10.0 170.0)
  end
  begin
     id 4 
     name lfoot
     direction 0.0823924 -0.226371 0.97055   
     length 2.33618   
     axis -90 7.62852e-016 20   XYZ
    dof rx rz
    limits (-45.0 90.0)
           (-70.0 20.0)
  end
  begin
     id 5 
     name ltoes
     direction 1.53554e-011 -4.21934e-011 1   
     length 1.17015   
     axis -90 7.62852e-016 20   XYZ
    dof rx
    limits (-90.0 20.0)
  end
  begin
     id 6 
     name rhipjoint
     direction -0.6077 -0.714582 0.346516   
     length 2.4176  
     axis 0 0 0  XYZ 
  end
  begin
     id 7 
     name rfemur
     direction -0.34202 -0.939693 0   
     length 7.28127   
     axis 0 0 -20   XYZ
    dof rx ry rz
    limits (-160.0 20.0)
           (-70.0 70.0)
           (-70.0 60.0)
  end
  begin
     id 8 
     name rtibia
     direction -0.34202 -0.939693 0   
     length 7.77648   
     axis 0 0 -20   XYZ
    dof rx
    limits (-10.0 170.0)
 end
 begin
     id 9 
     name rfoot
     direction -0.0809463 -0.222398 0.97159   
     length 2.37533  
     axis -90 -7.62852e-016 -20   XYZ
    dof rx rz
    limits (-45.0 90.0)
           (-20.0 70.0)
  end
  begin
     id 10 
     name rtoes
     direction -1.53568e-011 -4.21714e-011 1   
     length 1.18972   
     axis -90 -7.62852e-016 -20   XYZ
    dof rx
    limits (-90.0 20.0)
  end
  begin
     id 11 
     name lowerback
     direction 0.010968 0.991932 -0.126297   
     length 2.21698   
     axis 0 0 0   XYZ
    dof rx ry rz
    limits (-20.0 45.0)
           (-30.0 30.0)
           (-30.0 30.0)
  end
  begin
     id 12 
     name upperback
     direction 0.0167007 0.997503 -0.0686276   
     length 2.22371   
     axis 0 0 0   XYZ
    dof rx ry rz
    limits (-20.0 45.0)
           (-30.0 30.0)
           (-30.0 30.0)
  end
  begin
     id 13 
     name thorax
     direction 0.0111721 0.999885 -0.0102878   
     length 2.25242   
     axis 0 0 0   XYZ
    dof rx ry rz
    limits (-20.0 45.0)
           (-30.0 30.0)
           (-30.0 30.0)
  end
  begin
     id 14 
     name lowerneck
     direction -0.0120265 0.990428 0.137508   
     length 1.57674   
     axis 0 0 0   XYZ
    dof rx ry rz
    limits (-20.0 45.0)
           (-30.0 30.0)
           (-30.0 30.0)
  end
  begin
     id 15 
     name upperneck
     direction 0.0175669 0.998907 0.0433089   
     length 1.5618   
     axis 0 0 0   XYZ
    dof rx ry rz
    limits (-20.0 45.0)
           (-30.0 30.0)
           (-30.0 30.0)
  end
  begin
     id 16
     name head
     direction 0.00754609 0.99997 0.00185367  
     length 1.60579  
     axis 0 0 0   XYZ
    dof rx ry rz
    limits (-20.0 45.0)
           (-30.0 30.0)
           (-30.0 30.0)
  end
  begin
     id 17 
     name lclavicle
     direction 0.885866 0.429166 -0.176231  
     length 3.44967  
     axis 0 0 0   XYZ
    dof ry rz
    limits (-20.0 10.0)
           (0.0 20.0)
  end
  begin
     id 18 
     name lhumerus
     direction 1 -4.48973e-011 -1.90255e-027   
     length 5.20607   
     axis 180 -30 -90   XYZ
    dof rx ry rz
    limits (-60.0 90.0)
           (-90.0 90.0)
           (-90.0 90.0)
  end
  begin
     id 19
     name lradius
     direction 1 -4.48956e-011 9.87925e-027   
     length 3.39961   
     axis 180 -30 -90   XYZ
    dof rx
    limits (-10.0 170.0)
  end
  begin
     id 20
     name lwrist
     direction 1 -4.48985e-011 1.73247e-026   
     length 1.6998   
     axis -9.60847e-015 90 90   XYZ
    dof ry
    limits (-180.0 0.0)
 end
  begin
     id 21 
     name lhand
     direction 1 -4.48798e-011 3.46119e-026   
     length 0.519693   
     axis -2.21073e-014 90 90   XYZ
    dof rx rz
    limits (-90.0 90.0)
           (-45.0 45.0)
  end
  begin
     id 22 
     name lfingers
     direction 1 -4.48938e-011 6.92797e-026   
     length 0.41899   
     axis -4.42155e-014 90 90   XYZ
    dof rx
    limits (0.0 90.0)
  end
  begin
     id 23
     name lthumb
     direction 0.707107 -6.34952e-011 0.707107   
     length 0.601588   
     axis -90 45 6.0103e-014   XYZ
    dof rx rz
    limits (-45.0 45.0)
           (-45.0 45.0)
  end
  begin
     id 24 
     name rclavicle
     direction -0.866736 0.456792 -0.200276   
     length 3.45032  
     axis 0 0 0   XYZ 
    dof ry rz
    limits (-10.0 20.0)
           (-20.0 0.0)
  end
  begin
     id 25 
     name rhumerus
     direction -1 -4.4897e-011 8.65094e-028  
     length 5.32214   
     axis 180 30 90   XYZ
    dof rx ry rz
    limits (-90.0 60.0)
           (-90.0 90.0)
           (-90.0 90.0)
  end
  begin
     id 26 
     name rradius
     direction -1 -4.48987e-011 1.08427e-026   
     length 3.51208   
     axis 180 30 90   XYZ
    dof rx
    limits (-10.0 170.0)
  end
  begin
     id 27 
     name rwrist
     direction -1 -4.48961e-011 1.73222e-026   
     length 1.75604   
     axis -9.60847e-015 -90 -90   XYZ
    dof ry
    limits (-180.0 0.0)
  end
  begin
     id 28
     name rhand
     direction -1 -4.48895e-011 3.46314e-026   
     length 0.586681   
     axis -2.21073e-014 -90 -90   XYZ
    dof rx rz
    limits (-90.0 90.0)
           (-45.0 45.0)
  end
  begin
     id 29
     name rfingers
     direction -1 -4.48968e-011 6.92916e-026   
     length 0.472997   
     axis -4.42155e-014 -90 -90   XYZ
    dof rx
    limits (0.0 90.0)
  end
  begin
     id 30
     name rthumb
     direction -0.707107 -6.34848e-011 0.707107   
     length 0.679133   
     axis -90 -45 -6.0103e-014   XYZ
    dof rx rz
    limits (-45.0 45.0)
           (-45.0 45.0)
  end
:hierarchy
  begin
    root lhipjoint rhipjoint lowerback
    lhipjoint lfemur
    lfemur ltibia
    ltibia lfoot
    lfoot ltoes
    rhipjoint rfemur
    rfemur rtibia
    rtibia rfoot
    rfoot rtoes
    lowerback upperback
    upperback thorax
    thorax lowerneck lclavicle rclavicle
    lowerneck upperneck
    upperneck head
    lclavicle lhumerus
    lhumerus lradius
    lradius lwrist
    lwrist lhand lthumb
    lhand lfingers
    rclavicle rhumerus
    rhumerus rradius
    rradius rwrist
    rwrist rhand rthumb
    rhand rfingers
  end

#!OML:ASF H:\Dans Jumps\Project 1\Capture day 1\Session 1\subject.ASF
:FULLY-SPECIFIED
:DEGREES
39
root 0.509795 17.5694 -13.8227 5.25593 -1.61299 -1.77731
lowerback -2.61238 -0.352407 0.338614
upperback 2.35664 -0.54602 1.68445
thorax 3.90506 -0.287859 1.51358
lowerneck -13.8751 0.243335 -2.28414
upperneck 29.9626 0.693516 0.864374
head 12.1459 0.156362 0.819623
rclavicle 4.82053e-015 -2.78299e-015
rhumerus -27.6792 -17.5741 -77.9653
rradius 23.9988
rwrist 31.6304
rhand -19.4865 -26.5874
rfingers 7.12502
rthumb 6.83556 -56.457
lclavicle 4.82053e-015 -2.78299e-015
lhumerus -24.891 3.63759 86.1421
lradius 16.5414
lwrist 1.99161
lhand -25.5437 -3.95282
lfingers 7.12502
lthumb 0.986498 26.0246
rfemur -11.0999 -2.54258 20.0815
rtibia 19.6238
rfoot -13.12 -1.61447
rtoes 10.922
lfemur -9.80496 6.21908 -17.5905
ltibia 17.8163
lfoot -10.8902 4.42672
ltoes -0.204377
40
root 0.509636 17.5693 -13.8224 5.25042 -1.61152 -1.77464
lowerback -2.6136 -0.351111 0.337006
upperback 2.35774 -0.544261 1.68468
thorax 3.90687 -0.287039 1.51482
lowerneck -13.8804 0.238959 -2.28713
upperneck 29.9704 0.686588 0.869507
head 12.1502 0.15353 0.821182
rclavicle -9.14409e-015 1.25234e-014
rhumerus -27.6718 -17.5865 -77.953
rradius 23.9914
rwrist 31.6414
rhand -19.4904 -26.5758
rfingers 7.12502
rthumb 6.83182 -56.4456
lclavicle -9.14409e-015 1.25234e-014
lhumerus -24.8901 3.6275 86.1473
lradius 16.5368
lwrist 1.98907
lhand -25.5424 -3.94214
lfingers 7.12502
lthumb 0.987741 26.0353
rfemur -11.0947 -2.55888 20.0793
rtibia 19.6281
rfoot -13.1259 -1.60137
rtoes 10.9247
lfemur -9.79844 6.21528 -17.5924
ltibia 17.8187
lfoot -10.8926 4.43054
ltoes -0.216358
41
root 0.509416 17.5691 -13.8221 5.24473 -1.61114 -1.77659
lowerback -2.61345 -0.34898 0.339878
upperback 2.35779 -0.541579 1.68575
thorax 3.90675 -0.28564 1.51448
lowerneck -13.8823 0.235648 -2.28799
upperneck 29.9774 0.680813 0.873697
head 12.1535 0.151346 0.822155
rclavicle -3.52843e-015 -1.43125e-014
rhumerus -27.6665 -17.6053 -77.9393
rradius 23.982
rwrist 31.6572
rhand -19.4959 -26.5556
rfingers 7.12502
rthumb 6.82649 -56.4255
lclavicle -3.52843e-015 -1.43125e-014
lhumerus -24.8941 3.61433 86.154
lradius 16.5351
lwrist 1.9859
lhand -25.5435 -3.92341
lfingers 7.12502
lthumb 0.986606 26.0541
rfemur -11.0893 -2.56977 20.0824
rtibia 19.6322
rfoot -13.1321 -1.5921
rtoes 10.9322
lfemur -9.79213 6.21093 -17.589
ltibia 17.8209
lfoot -10.8928 4.43673
ltoes -0.237512
42
root 0.509241 17.5689 -13.8217 5.23833 -1.61257 -1.77793
lowerback -2.61324 -0.346759 0.342046
upperback 2.35753 -0.538741 1.68688
thorax 3.90628 -0.284183 1.51459
lowerneck -13.8808 0.233258 -2.29048
upperneck 29.9827 0.676564 0.878392
head 12.1554 0.149736 0.82379
rclavicle 1.63997e-015 1.19271e-015
rhumerus -27.6613 -17.6253 -77.9249
rradius 23.9706
rwrist 31.6713
rhand -19.4994 -26.5347
rfingers 7.12502
rthumb 6.82311 -56.4048
lclavicle 1.63997e-015 1.19271e-015
lhumerus -24.9018 3.61081 86.1595
lradius 16.5353
lwrist 1.97251
lhand -25.5469 -3.90592
lfingers 7.12502
lthumb 0.983348 26.0716
rfemur -11.0825 -2.57973 20.0843
rtibia 19.6363
rfoot -13.139 -1.58243
rtoes 10.9379
lfemur -9.78416 6.20608 -17.5865
ltibia 17.8232
lfoot -10.8932 4.44519
ltoes -0.259284
43
root 0.509094 17.5687 -13.8213 5.23271 -1.6157 -1.77949
lowerback -2.61263 -0.344244 0.345011
upperback 2.35625 -0.535507 1.68754
thorax 3.90451 -0.282493 1.51381
lowerneck -13.8767 0.230976 -2.29429
upperneck 29.9871 0.67229 0.884547
head 12.1563 0.148161 0.826177
rclavicle -1.67973e-014 1.80894e-014
rhumerus -27.6577 -17.6465 -77.9107
rradius 23.9573
rwrist 31.6949
rhand -19.5091 -26.5106
rfingers 7.12502
rthumb 6.81375 -56.381
lclavicle -1.67973e-014 1.80894e-014
lhumerus -24.9117 3.62067 86.1613
lradius 16.5329
lwrist 1.94517
lhand -25.5547 -3.89716
lfingers 7.12502
lthumb 0.975841 26.0804
rfemur -11.0767 -2.5847 20.0864
rtibia 19.6401
rfoot -13.1452 -1.57619
rtoes 10.9379
lfemur -9.77766 6.20056 -17.5839
ltibia 17.8262
lfoot -10.8926 4.45497
ltoes -0.27732
44
root 0.509013 17.5685 -13.8208 5.22763 -1.61954 -1.78087
lowerback -2.61169 -0.342453 0.347812
upperback 2.35408 -0.533231 1.68873
thorax 3.90166 -0.281288 1.51361
lowerneck -13.8736 0.229592 -2.29875
upperneck 29.9928 0.670108 0.888828
head 12.158 0.147184 0.828286
rclavicle 1.17283e-014 -9.54166e-015
rhumerus -27.6558 -17.6616 -77.8974
rradius 23.9459
rwrist 31.7168
rhand -19.518 -26.4903
rfingers 7.12502
rthumb 6.80515 -56.3609
lclavicle 1.17283e-014 -9.54166e-015
lhumerus -24.9254 3.64476 86.1611
lradius 16.5316
lwrist 1.90902
lhand -25.5559 -3.87926
lfingers 7.12502
lthumb 0.974624 26.0983
rfemur -11.0712 -2.5854 20.0878
rtibia 19.6434
rfoot -13.1504 -1.57295
rtoes 10.9389
lfemur -9.77186 6.19514 -17.5817
ltibia 17.8302
lfoot -10.8932 4.46494
ltoes -0.290269
45
root 0.509035 17.5683 -13.8202 5.22237 -1.62214 -1.78068
lowerback -2.61197 -0.341935 0.350611
upperback 2.3533 -0.532669 1.68915
thorax 3.90097 -0.280933 1.5125
lowerneck -13.8734 0.228571 -2.30457
upperneck 29.999 0.668987 0.892822
head 12.1604 0.146481 0.830689
rclavicle 3.47873e-016 6.36111e-015
rhumerus -27.6502 -17.6782 -77.8858
rradius 23.9304
rwrist 31.7504
rhand -19.534 -26.4654
rfingers 7.12502
rthumb 6.78969 -56.3365
lclavicle 3.47873e-016 6.36111e-015
lhumerus -24.9384 3.67394 86.16
lradius 16.5306
lwrist 1.87309
lhand -25.5599 -3.87985
lfingers 7.12502
lthumb 0.970805 26.0977
rfemur -11.0645 -2.58398 20.0871
rtibia 19.6457
rfoot -13.155 -1.57349
rtoes 10.9359
lfemur -9.76651 6.19004 -17.5814
ltibia 17.8361
lfoot -10.8961 4.47236
ltoes -0.295207
46
root 0.509074 17.5681 -13.8197 5.21807 -1.62541 -1.7828
lowerback -2.61281 -0.342062 0.35607
upperback 2.35241 -0.533096 1.68975
thorax 3.90049 -0.280999 1.51002
lowerneck -13.8755 0.22867 -2.30824
upperneck 30.0065 0.669738 0.894305
head 12.1638 0.146511 0.832063
rclavicle 4.32357e-015 8.54774e-015
rhumerus -27.6465 -17.6822 -77.8802
rradius 23.9215
rwrist 31.774
rhand -19.5488 -26.4508
rfingers 7.12502
rthumb 6.77537 -56.3224
lclavicle 4.32357e-015 8.54774e-015
lhumerus -24.9528 3.70008 86.1597
lradius 16.5312
lwrist 1.84783
lhand -25.5558 -3.88139
lfingers 7.12502
lthumb 0.974804 26.0961
rfemur -11.0584 -2.57629 20.0888
rtibia 19.647
rfoot -13.1578 -1.57814
rtoes 10.9406
lfemur -9.76297 6.18685 -17.5785
ltibia 17.8436
lfoot -10.9006 4.47842
ltoes -0.285112
47
root 0.509103 17.5679 -13.8191 5.21429 -1.62597 -1.78598
lowerback -2.61447 -0.342899 0.363651
upperback 2.3512 -0.53455 1.68975
thorax 3.90015 -0.281507 1.50567
lowerneck -13.8755 0.228262 -2.31157
upperneck 30.0125 0.669638 0.895661
head 12.1662 0.146197 0.833185
rclavicle -3.52843e-015 3.97569e-015
rhumerus -27.6441 -17.6842 -77.8779
rradius 23.9155
rwrist 31.7889
rhand -19.5619 -26.4333
rfingers 7.12502
rthumb 6.76275 -56.3053
lclavicle -3.52843e-015 3.97569e-015
lhumerus -24.9681 3.71334 86.1628
lradius 16.5333
lwrist 1.83884
lhand -25.5417 -3.8689
lfingers 7.12502
lthumb 0.988346 26.1086
rfemur -11.0519 -2.56632 20.0918
rtibia 19.6475
rfoot -13.1602 -1.58766
rtoes 10.9494
lfemur -9.76089 6.18392 -17.5743
ltibia 17.853
lfoot -10.9074 4.48239
ltoes -0.270973
